 http://img713.imageshack.us/img713/7002/teamexd.png 
http://img13.imageshack.us/img13/1576/cocktail001.jpg
Format                                   : Matroska
Format version                           : Version 2
File size                                : 696 MiB
Duration                                 : 2h 24mn
Overall bit rate                         : 672 Kbps
Movie name                               : CockTail [2012]]-1CD-DVDRip-By-K@rtik [EXD Exclusive]
Codec ID                                 : V_MPEG4/ISO/AVC
Duration                                 : 2h 24mn
Bit rate                                 : 543 Kbps
Width                                    : 688 pixels
Height                                   : 288 pixels
Display aspect ratio                     : 2.40:1
Frame rate                               : 23.976 fps
Color space                              : YUV
Chroma subsampling                       : 4:2:0
Stream size                              : 550 MiB (79%)
Title                                    : K@rtik
Codec ID                                 : A_AC3
Duration                                 : 2h 24mn
Bit rate mode                            : Constant
Bit rate                                 : 128 Kbps
Channel(s)                               : 2 channels
Channel positions                        : Front: L R
Sampling rate                            : 48.0 KHz
Bit depth                                : 16 bits
Compression mode                         : Lossy
Stream size                              : 133 MiB (19%)
Title                                    : K@rtik
Language                                 : Hindi 
http://img705.imageshack.us/img705/9832/17040478.png 
http://img16.imageshack.us/img16/5796/16511615.png 
http://img441.imageshack.us/img441/1627/19463089.png 
http://img818.imageshack.us/img818/1271/67436600.png 
http://img338.imageshack.us/img338/2276/81894154.png 
http://img839.imageshack.us/img839/7051/72666507.png 
http://img543.imageshack.us/img543/1796/26957062.png 
http://img228.imageshack.us/img228/7281/74423770.png 
http://img823.imageshack.us/img823/9279/95399024.png 
http://img528.imageshack.us/img528/8239/66822824.png 
http://img69.imageshack.us/img69/5232/53915853.png



